<svg width="90" height="16" viewBox="0 0 90 16" fill="none" xmlns="http://www.w3.org/2000/svg">
<path d="M89.8353 0H69.8353V16H89.8353V0Z" fill="#FF4F00"/>
<path d="M4.18574 8.73801V15.5198H1.11051V8.73801H0V6.35414H1.11051V4.54571C1.11051 3.51831 1.21735 2.34695 2.17831 1.36062C2.7976 0.723292 3.67321 0.3125 4.84784 0.3125C5.53117 0.3125 6.08634 0.435739 6.59905 0.620594V3.21004C6.25739 3.00447 5.8088 2.8607 5.42433 2.8607C4.95459 2.8607 4.65556 3.06626 4.52741 3.23058C4.18574 3.66225 4.18574 4.38148 4.18574 4.8129V6.35422H6.62037V8.7381H4.18574V8.73801Z" fill="#FF4F00"/>
<path d="M15.4315 14.3476C14.7136 15.1696 13.4934 15.8275 11.9321 15.8275C10.3709 15.8275 9.15052 15.1697 8.43267 14.3476C7.62524 13.4228 7.23033 12.1075 7.23033 10.9364C7.23033 9.76499 7.62524 8.44978 8.43267 7.5249C9.15052 6.70288 10.3709 6.04536 11.9321 6.04536C13.4934 6.04536 14.7136 6.7028 15.4315 7.5249C16.2391 8.44978 16.6338 9.76508 16.6338 10.9364C16.6338 12.1076 16.2391 13.4228 15.4315 14.3476ZM10.4786 9.21C10.1017 9.64158 9.8864 10.1963 9.8864 10.9363C9.8864 11.7789 10.1734 12.3131 10.4786 12.6624C10.8015 13.0323 11.2682 13.3201 11.95 13.3201C12.5243 13.3201 13.0089 13.094 13.3858 12.6624C13.7625 12.2308 13.9779 11.6761 13.9779 10.9363C13.9779 10.1963 13.7625 9.64158 13.3858 9.21C13.0089 8.77858 12.5243 8.55256 11.9322 8.55256C11.34 8.55256 10.8554 8.77858 10.4787 9.21H10.4786Z" fill="#FF4F00"/>
<path d="M21.0129 10.5258L17.8365 6.3539H21.1384L22.628 8.47068L24.1174 6.3539H27.4194L24.2431 10.5258L28.1551 15.5195H24.8171L22.628 12.5602L20.4386 15.5195H17.1008L21.0129 10.5258Z" fill="#FF4F00"/>
<path d="M29.1958 6.35416H31.7799V7.42282C32.4438 6.27218 33.4129 6.12805 34.0231 6.12805C34.3641 6.12805 34.9922 6.16931 35.5306 6.53928C35.9432 6.80638 36.2843 7.25859 36.4995 7.8135C36.697 7.44336 37.0021 7.01194 37.5225 6.64197C38.0788 6.25137 38.5992 6.12805 39.2273 6.12805C40.1965 6.12805 40.986 6.45694 41.4705 6.99149C42.2421 7.83404 42.2961 9.06692 42.2961 9.72471V15.5198H39.7119V10.8754C39.7119 10.4027 39.7119 9.58059 39.3708 9.08738C39.1555 8.77929 38.8147 8.59417 38.4378 8.59417C38.007 8.59417 37.648 8.82028 37.4328 9.14917C37.0917 9.64238 37.038 10.3616 37.038 10.9576V15.5197H34.454V10.7519C34.454 10.1354 34.436 9.4161 34.0412 8.96397C33.772 8.65588 33.449 8.59409 33.1798 8.59409C32.8388 8.59409 32.5339 8.69696 32.2826 8.96397C31.798 9.49843 31.78 10.5258 31.78 10.8342V15.5197H29.196V6.35408L29.1958 6.35416Z" fill="#FF4F00"/>
<path d="M45.7957 0.723488C46.6392 0.723488 47.3032 1.48405 47.3032 2.44993C47.3032 3.41571 46.6392 4.17602 45.7957 4.17602C44.9523 4.17602 44.2884 3.41571 44.2884 2.44993C44.2884 1.48405 44.9523 0.723488 45.7957 0.723488ZM47.3032 6.53047V15.6961L44.5038 15.52V6.35433L47.3032 6.53047Z" fill="#FF4F00"/>
<path d="M49.2767 6.35372H51.8607V7.44292C52.6505 6.29219 53.5836 6.10707 54.3372 6.10707C55.0371 6.10707 55.9524 6.25093 56.6342 7.03195C57.388 7.89504 57.4417 8.98415 57.4417 9.72426V15.5193H54.8577V10.8135C54.8577 10.2175 54.8399 9.45691 54.4271 8.98424C54.2296 8.75813 53.9066 8.57327 53.4401 8.57327C52.9016 8.57327 52.5606 8.81992 52.3633 9.06648C51.9325 9.55978 51.8607 10.2175 51.8607 10.8135V15.5193H49.2767V6.35372V6.35372Z" fill="#FF4F00"/>
<path d="M68.1734 15.5198H65.5894V14.4101C65.1946 15.0676 64.4767 15.8281 63.0593 15.8281C61.8747 15.8281 61.0135 15.3964 60.3136 14.5744C59.4881 13.6289 59.0575 12.3138 59.0575 10.8957C59.0575 9.37518 59.5418 8.12141 60.3136 7.27885C61.0135 6.51855 62.0004 6.04589 63.0952 6.04589C63.9744 6.04589 64.9435 6.37477 65.5895 7.38164V0.538361H68.1735V15.5196L68.1734 15.5198ZM62.3413 9.21078C61.9644 9.62191 61.7132 10.2179 61.7132 10.9577C61.7132 11.6359 61.9644 12.2316 62.3413 12.6428C62.736 13.0744 63.2386 13.2798 63.6873 13.2798C64.1715 13.2798 64.746 13.0536 65.1587 12.6018C65.4639 12.2729 65.7509 11.718 65.7509 10.9578C65.7509 10.1767 65.4817 9.64246 65.1765 9.27257C64.764 8.77936 64.2794 8.59434 63.7232 8.59434C63.2027 8.59434 62.7541 8.75865 62.3413 9.21086V9.21078Z" fill="#FF4F00"/>
<path d="M78.529 11.4503H72.5531C72.5531 11.9435 72.7144 12.6012 73.0376 13.0121C73.4324 13.5053 73.9709 13.5876 74.3656 13.5876C74.7425 13.5876 75.1372 13.5052 75.4065 13.3204C75.4424 13.2996 75.7475 13.0738 75.9627 12.5598L78.4033 12.8477C78.0445 14.1421 77.3265 14.8204 76.8601 15.1494C76.0882 15.6835 75.2271 15.8276 74.3297 15.8276C73.1272 15.8276 72.0686 15.5809 71.1354 14.5123C70.4355 13.7107 69.9332 12.4983 69.9332 10.9774C69.9332 9.66221 70.3457 8.30599 71.1534 7.36057C72.1223 6.25075 73.3247 6.04536 74.222 6.04536C75.1194 6.04536 76.4114 6.23021 77.3983 7.4221C78.3493 8.573 78.529 10.0115 78.529 11.1417V11.4501V11.4503ZM76.1421 9.68283C76.1241 9.6005 75.9986 9.02539 75.6216 8.61417C75.3347 8.30608 74.9218 8.10051 74.4014 8.10051C73.7375 8.10051 73.3425 8.40886 73.0913 8.6965C72.8941 8.94306 72.7144 9.27187 72.6426 9.68283H76.1421V9.68283Z" fill="white"/>
<path d="M88.8651 15.5198H86.281V14.4101C85.8863 15.0676 85.1684 15.8281 83.751 15.8281C82.5663 15.8281 81.7051 15.3964 81.0052 14.5744C80.1797 13.6289 79.7491 12.3138 79.7491 10.8957C79.7491 9.37518 80.2334 8.12141 81.0052 7.27885C81.7051 6.51855 82.6921 6.04589 83.7869 6.04589C84.6661 6.04589 85.6352 6.37477 86.2811 7.38164V0.538361H88.8651V15.5196L88.8651 15.5198ZM83.033 9.21078C82.6561 9.62191 82.4049 10.2179 82.4049 10.9577C82.4049 11.6359 82.6561 12.2316 83.033 12.6428C83.4277 13.0744 83.9302 13.2798 84.3789 13.2798C84.8632 13.2798 85.4376 13.0536 85.8504 12.6018C86.1556 12.2729 86.4426 11.718 86.4426 10.9578C86.4426 10.1767 86.1733 9.64246 85.8682 9.27257C85.4557 8.77936 84.9711 8.59434 84.4148 8.59434C83.8943 8.59434 83.4457 8.75865 83.033 9.21086V9.21078Z" fill="white"/>
</svg>
